# xmcd CD database file
#
# Track frame offsets:
#	150
#	32570
#	62410
#	114287
#	156102
#	216212
#	228807
#	247332
#	277050
#
# Disc length: 4406 seconds
#
# Revision: 0
# Processed by: cddbd v1.5.2PL0 Copyright (c) Steve Scherf et al.
# Submitted via: CDex 1.70beta2
#
DISCID=77113409
DTITLE=Charlie Parker 10th Memorial  - Charlie Parker 10th Memorial Concert 3/27/65
DYEAR=1962
DGENRE=Jazz
TTITLE0=Um-HMM! (Ode to Yard)
TTITLE1=Groovin' High
TTITLE2=Blues from Gillespiana
TTITLE3=A Night in Tunisia
TTITLE4=Now's the Time
TTITLE5=Donna Lee
TTITLE6=Cherokee
TTITLE7=Blues for Bird
TTITLE8=Medley: Bird Watcher/Disorder at the Border
EXTD=YEAR: 1962
EXTT0=
EXTT1=
EXTT2=
EXTT3=
EXTT4=
EXTT5=
EXTT6=
EXTT7=
EXTT8=
PLAYORDER=
